<svg width="176" height="53" viewBox="0 0 176 53" fill="none" xmlns="http://www.w3.org/2000/svg">
<path d="M37.1222 8.875V26.875H33.9782V10.243L35.4182 11.683H21.1382L22.5782 10.243V26.875H19.4102V8.875H37.1222ZM42.7442 8.875H59.0162V26.875H55.8482V10.243L57.2882 11.683H44.5202L45.8642 10.603C45.9922 11.915 46.0882 13.155 46.1522 14.323C46.2162 15.491 46.2482 16.587 46.2482 17.611C46.2482 19.851 46.0562 21.675 45.6722 23.083C45.2882 24.491 44.6882 25.531 43.8722 26.203C43.0722 26.859 42.0242 27.187 40.7282 27.187C40.2322 27.187 39.7442 27.131 39.2642 27.019C38.7842 26.923 38.3522 26.771 37.9682 26.563V23.875C38.6402 24.147 39.2722 24.283 39.8642 24.283C41.0482 24.283 41.9042 23.723 42.4322 22.603C42.9762 21.483 43.2482 19.667 43.2482 17.155C43.2482 16.067 43.2082 14.827 43.1282 13.435C43.0482 12.027 42.9202 10.507 42.7442 8.875ZM70.9605 27.211C68.9125 27.211 67.1125 26.819 65.5605 26.035C64.0085 25.251 62.8005 24.163 61.9365 22.771C61.0725 21.363 60.6405 19.731 60.6405 17.875C60.6405 16.019 61.0725 14.395 61.9365 13.003C62.8005 11.595 64.0085 10.499 65.5605 9.715C67.1125 8.931 68.9125 8.539 70.9605 8.539C73.0085 8.539 74.8085 8.931 76.3605 9.715C77.9125 10.499 79.1205 11.595 79.9845 13.003C80.8485 14.395 81.2805 16.019 81.2805 17.875C81.2805 19.731 80.8485 21.363 79.9845 22.771C79.1205 24.163 77.9125 25.251 76.3605 26.035C74.8085 26.819 73.0085 27.211 70.9605 27.211ZM70.9605 24.379C72.4165 24.379 73.6725 24.115 74.7285 23.587C75.7845 23.059 76.6005 22.307 77.1765 21.331C77.7685 20.355 78.0645 19.203 78.0645 17.875C78.0645 16.547 77.7685 15.395 77.1765 14.419C76.6005 13.443 75.7845 12.691 74.7285 12.163C73.6725 11.635 72.4165 11.371 70.9605 11.371C69.5205 11.371 68.2645 11.635 67.1925 12.163C66.1365 12.691 65.3125 13.443 64.7205 14.419C64.1445 15.395 63.8565 16.547 63.8565 17.875C63.8565 19.203 64.1445 20.355 64.7205 21.331C65.3125 22.307 66.1365 23.059 67.1925 23.587C68.2645 24.115 69.5205 24.379 70.9605 24.379ZM87.7888 10.339H90.9568V26.875H87.7888V10.339ZM80.3488 8.875H98.3968V11.659H80.3488V8.875ZM99.3612 26.875V8.875H102.433V25.387L101.353 25.195L113.905 8.875H118.033V26.875H114.961V10.219L116.041 10.411L103.393 26.875H99.3612ZM120.632 8.875H123.8V26.875H120.632V8.875ZM135.272 8.875H138.44V26.875H135.272V8.875ZM122.336 16.411H136.784V19.195H122.336V16.411ZM143.436 22.747V20.131H156.012V22.747H143.436ZM151.788 8.875L160.428 26.875H157.044L149.196 10.075H150.42L142.572 26.875H139.188L147.828 8.875H151.788Z" fill="#FFFFFF"/>
<path d="M151.714 38.435L151.974 37.855C153.16 37.8683 154.127 38.0483 154.874 38.395C155.634 38.7417 156.187 39.2083 156.534 39.795C156.894 40.3817 157.074 41.0417 157.074 41.775C157.074 42.575 156.88 43.2817 156.494 43.895C156.12 44.5083 155.567 44.995 154.834 45.355C154.1 45.7017 153.187 45.875 152.094 45.875H142.094L143.274 38.175L142.094 30.875H151.734C153.12 30.875 154.187 31.2017 154.934 31.855C155.694 32.495 156.074 33.3817 156.074 34.515C156.074 35.115 155.927 35.7017 155.634 36.275C155.354 36.835 154.894 37.315 154.254 37.715C153.627 38.1017 152.78 38.3417 151.714 38.435ZM144.754 45.135L143.734 43.755H151.794C152.62 43.755 153.26 43.5683 153.714 43.195C154.18 42.8083 154.414 42.2617 154.414 41.555C154.414 40.8083 154.14 40.2283 153.594 39.815C153.06 39.4017 152.267 39.195 151.214 39.195H144.714V37.155H150.954C151.66 37.155 152.247 36.9617 152.714 36.575C153.18 36.175 153.414 35.6083 153.414 34.875C153.414 34.3283 153.22 33.8817 152.834 33.535C152.447 33.175 151.887 32.995 151.154 32.995H143.734L144.754 31.615L145.814 38.175L144.754 45.135Z" fill="#FFFFFF"/>
<path d="M130.585 46.155C128.879 46.155 127.379 45.8283 126.085 45.175C124.792 44.5217 123.785 43.615 123.065 42.455C122.345 41.2817 121.985 39.9217 121.985 38.375C121.985 36.8283 122.345 35.475 123.065 34.315C123.785 33.1417 124.792 32.2283 126.085 31.575C127.379 30.9217 128.879 30.595 130.585 30.595C132.292 30.595 133.792 30.9217 135.085 31.575C136.379 32.2283 137.385 33.1417 138.105 34.315C138.825 35.475 139.185 36.8283 139.185 38.375C139.185 39.9217 138.825 41.2817 138.105 42.455C137.385 43.615 136.379 44.5217 135.085 45.175C133.792 45.8283 132.292 46.155 130.585 46.155ZM130.585 43.795C131.799 43.795 132.845 43.575 133.725 43.135C134.605 42.695 135.285 42.0683 135.765 41.255C136.259 40.4417 136.505 39.4817 136.505 38.375C136.505 37.2683 136.259 36.3083 135.765 35.495C135.285 34.6817 134.605 34.055 133.725 33.615C132.845 33.175 131.799 32.955 130.585 32.955C129.385 32.955 128.339 33.175 127.445 33.615C126.565 34.055 125.879 34.6817 125.385 35.495C124.905 36.3083 124.665 37.2683 124.665 38.375C124.665 39.4817 124.905 40.4417 125.385 41.255C125.879 42.0683 126.565 42.695 127.445 43.135C128.339 43.575 129.385 43.795 130.585 43.795Z" fill="#FFFFFF"/>
<path d="M114.14 30.875C115.26 30.875 116.226 31.075 117.04 31.475C117.866 31.875 118.5 32.435 118.94 33.155C119.393 33.8617 119.62 34.6817 119.62 35.615C119.62 36.5483 119.393 37.375 118.94 38.095C118.5 38.8017 117.866 39.355 117.04 39.755C116.226 40.155 115.26 40.355 114.14 40.355H107.4V38.075H114.04C114.946 38.075 115.653 37.855 116.16 37.415C116.68 36.975 116.94 36.375 116.94 35.615C116.94 34.855 116.68 34.255 116.16 33.815C115.653 33.375 114.946 33.155 114.04 33.155H107.66L108.84 31.835V45.875H106.2V30.875H114.14Z" fill="#FFFFFF"/>
<path d="M101.867 37.275V39.475H91.387V37.275H101.867ZM93.127 38.375L92.067 45.075L90.807 43.595H102.447V45.875H89.367L90.567 38.375L89.367 30.875H102.347V33.155H90.807L92.067 31.675L93.127 38.375Z" fill="#FFFFFF"/>
<path d="M81.0534 38.435L81.3134 37.855C82.5001 37.8683 83.4668 38.0483 84.2134 38.395C84.9734 38.7417 85.5268 39.2083 85.8734 39.795C86.2334 40.3817 86.4134 41.0417 86.4134 41.775C86.4134 42.575 86.2201 43.2817 85.8334 43.895C85.4601 44.5083 84.9068 44.995 84.1734 45.355C83.4401 45.7017 82.5268 45.875 81.4334 45.875H71.4334L72.6134 38.175L71.4334 30.875H81.0734C82.4601 30.875 83.5268 31.2017 84.2734 31.855C85.0334 32.495 85.4134 33.3817 85.4134 34.515C85.4134 35.115 85.2668 35.7017 84.9734 36.275C84.6934 36.835 84.2334 37.315 83.5934 37.715C82.9668 38.1017 82.1201 38.3417 81.0534 38.435ZM74.0934 45.135L73.0734 43.755H81.1334C81.9601 43.755 82.6001 43.5683 83.0534 43.195C83.5201 42.8083 83.7534 42.2617 83.7534 41.555C83.7534 40.8083 83.4801 40.2283 82.9334 39.815C82.4001 39.4017 81.6068 39.195 80.5534 39.195H74.0534V37.155H80.2934C81.0001 37.155 81.5868 36.9617 82.0534 36.575C82.5201 36.175 82.7534 35.6083 82.7534 34.875C82.7534 34.3283 82.5601 33.8817 82.1734 33.535C81.7868 33.175 81.2268 32.995 80.4934 32.995H73.0734L74.0934 31.615L75.1534 38.175L74.0934 45.135Z" fill="#FFFFFF"/>
<path d="M63.3075 30.875C64.4275 30.875 65.3942 31.075 66.2075 31.475C67.0342 31.875 67.6675 32.435 68.1075 33.155C68.5608 33.8617 68.7875 34.6817 68.7875 35.615C68.7875 36.5483 68.5608 37.375 68.1075 38.095C67.6675 38.8017 67.0342 39.355 66.2075 39.755C65.3942 40.155 64.4275 40.355 63.3075 40.355H56.5675V38.075H63.2075C64.1142 38.075 64.8208 37.855 65.3275 37.415C65.8475 36.975 66.1075 36.375 66.1075 35.615C66.1075 34.855 65.8475 34.255 65.3275 33.815C64.8208 33.375 64.1142 33.155 63.2075 33.155H56.8275L58.0075 31.835V45.875H55.3675V30.875H63.3075Z" fill="#FFFFFF"/>
<path d="M51.035 37.275V39.475H40.555V37.275H51.035ZM42.295 38.375L41.235 45.075L39.975 43.595H51.615V45.875H38.535L39.735 38.375L38.535 30.875H51.515V33.155H39.975L41.235 31.675L42.295 38.375Z" fill="#FFFFFF"/>
<path d="M35.6328 39.935C35.4995 41.1617 35.0661 42.2483 34.3328 43.195C33.6128 44.1283 32.6661 44.855 31.4928 45.375C30.3195 45.895 28.9795 46.155 27.4728 46.155C25.7928 46.155 24.3195 45.8283 23.0528 45.175C21.7861 44.5217 20.7995 43.615 20.0928 42.455C19.3861 41.2817 19.0328 39.9217 19.0328 38.375C19.0328 36.8283 19.3861 35.475 20.0928 34.315C20.7995 33.1417 21.7861 32.2283 23.0528 31.575C24.3195 30.9217 25.7928 30.595 27.4728 30.595C28.9795 30.595 30.3195 30.855 31.4928 31.375C32.6661 31.895 33.6128 32.6217 34.3328 33.555C35.0661 34.4883 35.4995 35.575 35.6328 36.815H32.9728C32.8261 36.015 32.5061 35.3283 32.0128 34.755C31.5328 34.1817 30.9061 33.7417 30.1328 33.435C29.3595 33.115 28.4661 32.955 27.4528 32.955C26.2795 32.955 25.2595 33.175 24.3928 33.615C23.5395 34.055 22.8795 34.6817 22.4128 35.495C21.9461 36.3083 21.7128 37.2683 21.7128 38.375C21.7128 39.4817 21.9461 40.4417 22.4128 41.255C22.8795 42.0683 23.5395 42.695 24.3928 43.135C25.2595 43.575 26.2795 43.795 27.4528 43.795C28.4661 43.795 29.3595 43.6417 30.1328 43.335C30.9061 43.0283 31.5328 42.5883 32.0128 42.015C32.5061 41.4283 32.8261 40.735 32.9728 39.935H35.6328Z" fill="#FFFFFF"/>
<path d="M7.09375 20.125V8.0625C7.09375 5.60417 7.83333 3.70833 9.3125 2.375C11.0208 0.791667 13.7604 0 17.5312 0V3.84375C15.0938 3.84375 13.4792 4.30208 12.6875 5.21875C12.0208 5.98958 11.6875 7.36458 11.6875 9.34375V20.125C11.6875 21.5417 11.4167 22.8229 10.875 23.9688C10.4792 24.7604 9.95833 25.5417 9.3125 26.3125C9.97917 27.1042 10.5 27.875 10.875 28.625C11.4167 29.7708 11.6875 31.0417 11.6875 32.4375V43.6562C11.6875 45.6979 12.0208 47.0729 12.6875 47.7812C13.5 48.6979 15.1146 49.1562 17.5312 49.1562V53C13.7604 53 11.0208 52.2083 9.3125 50.625C7.83333 49.2917 7.09375 47.3958 7.09375 44.9375V32.4375C7.09375 31.1042 6.58333 29.6667 5.5625 28.125C5.08333 27.4167 4.58333 26.8125 4.0625 26.3125C5.125 25.2917 5.97917 24.0312 6.625 22.5312C6.9375 21.7812 7.09375 20.9792 7.09375 20.125Z" fill="#FFFFFF"/>
<path d="M158.938 3.84375V0C162.688 0 165.438 0.791667 167.188 2.375C168.646 3.72917 169.375 5.625 169.375 8.0625V20.125C169.375 21.5417 169.875 23 170.875 24.5C171.354 25.2292 171.865 25.8333 172.406 26.3125C171.323 27.3333 170.469 28.5833 169.844 30.0625C169.531 30.8125 169.375 31.6042 169.375 32.4375V44.9375C169.375 47.375 168.646 49.2708 167.188 50.625C165.438 52.2083 162.688 53 158.938 53V49.1562C161.375 49.1562 163 48.6979 163.812 47.7812C164.458 47.0938 164.781 45.7188 164.781 43.6562V32.4375C164.781 31.0208 165.062 29.75 165.625 28.625C165.979 27.875 166.49 27.1042 167.156 26.3125C166.51 25.5417 166 24.7604 165.625 23.9688C165.062 22.8438 164.781 21.5625 164.781 20.125V9.34375C164.781 7.34375 164.458 5.96875 163.812 5.21875C163.021 4.30208 161.396 3.84375 158.938 3.84375Z" fill="#FFFFFF"/>
</svg>
