<svg width="176" height="53" viewBox="0 0 176 53" fill="none" xmlns="http://www.w3.org/2000/svg">
<path d="M37.1222 8.875V26.875H33.9782V10.243L35.4182 11.683H21.1382L22.5782 10.243V26.875H19.4102V8.875H37.1222ZM42.7442 8.875H59.0162V26.875H55.8482V10.243L57.2882 11.683H44.5202L45.8642 10.603C45.9922 11.915 46.0882 13.155 46.1522 14.323C46.2162 15.491 46.2482 16.587 46.2482 17.611C46.2482 19.851 46.0562 21.675 45.6722 23.083C45.2882 24.491 44.6882 25.531 43.8722 26.203C43.0722 26.859 42.0242 27.187 40.7282 27.187C40.2322 27.187 39.7442 27.131 39.2642 27.019C38.7842 26.923 38.3522 26.771 37.9682 26.563V23.875C38.6402 24.147 39.2722 24.283 39.8642 24.283C41.0482 24.283 41.9042 23.723 42.4322 22.603C42.9762 21.483 43.2482 19.667 43.2482 17.155C43.2482 16.067 43.2082 14.827 43.1282 13.435C43.0482 12.027 42.9202 10.507 42.7442 8.875ZM70.9605 27.211C68.9125 27.211 67.1125 26.819 65.5605 26.035C64.0085 25.251 62.8005 24.163 61.9365 22.771C61.0725 21.363 60.6405 19.731 60.6405 17.875C60.6405 16.019 61.0725 14.395 61.9365 13.003C62.8005 11.595 64.0085 10.499 65.5605 9.715C67.1125 8.931 68.9125 8.539 70.9605 8.539C73.0085 8.539 74.8085 8.931 76.3605 9.715C77.9125 10.499 79.1205 11.595 79.9845 13.003C80.8485 14.395 81.2805 16.019 81.2805 17.875C81.2805 19.731 80.8485 21.363 79.9845 22.771C79.1205 24.163 77.9125 25.251 76.3605 26.035C74.8085 26.819 73.0085 27.211 70.9605 27.211ZM70.9605 24.379C72.4165 24.379 73.6725 24.115 74.7285 23.587C75.7845 23.059 76.6005 22.307 77.1765 21.331C77.7685 20.355 78.0645 19.203 78.0645 17.875C78.0645 16.547 77.7685 15.395 77.1765 14.419C76.6005 13.443 75.7845 12.691 74.7285 12.163C73.6725 11.635 72.4165 11.371 70.9605 11.371C69.5205 11.371 68.2645 11.635 67.1925 12.163C66.1365 12.691 65.3125 13.443 64.7205 14.419C64.1445 15.395 63.8565 16.547 63.8565 17.875C63.8565 19.203 64.1445 20.355 64.7205 21.331C65.3125 22.307 66.1365 23.059 67.1925 23.587C68.2645 24.115 69.5205 24.379 70.9605 24.379ZM87.7888 10.339H90.9568V26.875H87.7888V10.339ZM80.3488 8.875H98.3968V11.659H80.3488V8.875ZM99.3612 26.875V8.875H102.433V25.387L101.353 25.195L113.905 8.875H118.033V26.875H114.961V10.219L116.041 10.411L103.393 26.875H99.3612ZM120.632 8.875H123.8V26.875H120.632V8.875ZM135.272 8.875H138.44V26.875H135.272V8.875ZM122.336 16.411H136.784V19.195H122.336V16.411ZM143.436 22.747V20.131H156.012V22.747H143.436ZM151.788 8.875L160.428 26.875H157.044L149.196 10.075H150.42L142.572 26.875H139.188L147.828 8.875H151.788Z" fill="#B42124"/>
<path d="M7.09375 20.125V8.0625C7.09375 5.60417 7.83333 3.70833 9.3125 2.375C11.0208 0.791667 13.7604 0 17.5312 0V3.84375C15.0938 3.84375 13.4792 4.30208 12.6875 5.21875C12.0208 5.98958 11.6875 7.36458 11.6875 9.34375V20.125C11.6875 21.5417 11.4167 22.8229 10.875 23.9688C10.4792 24.7604 9.95833 25.5417 9.3125 26.3125C9.97917 27.1042 10.5 27.875 10.875 28.625C11.4167 29.7708 11.6875 31.0417 11.6875 32.4375V43.6562C11.6875 45.6979 12.0208 47.0729 12.6875 47.7812C13.5 48.6979 15.1146 49.1562 17.5312 49.1562V53C13.7604 53 11.0208 52.2083 9.3125 50.625C7.83333 49.2917 7.09375 47.3958 7.09375 44.9375V32.4375C7.09375 31.1042 6.58333 29.6667 5.5625 28.125C5.08333 27.4167 4.58333 26.8125 4.0625 26.3125C5.125 25.2917 5.97917 24.0312 6.625 22.5312C6.9375 21.7812 7.09375 20.9792 7.09375 20.125Z" fill="#B42124"/>
<path d="M158.938 3.84375V0C162.688 0 165.438 0.791667 167.188 2.375C168.646 3.72917 169.375 5.625 169.375 8.0625V20.125C169.375 21.5417 169.875 23 170.875 24.5C171.354 25.2292 171.865 25.8333 172.406 26.3125C171.323 27.3333 170.469 28.5833 169.844 30.0625C169.531 30.8125 169.375 31.6042 169.375 32.4375V44.9375C169.375 47.375 168.646 49.2708 167.188 50.625C165.438 52.2083 162.688 53 158.938 53V49.1562C161.375 49.1562 163 48.6979 163.812 47.7812C164.458 47.0938 164.781 45.7188 164.781 43.6562V32.4375C164.781 31.0208 165.062 29.75 165.625 28.625C165.979 27.875 166.49 27.1042 167.156 26.3125C166.51 25.5417 166 24.7604 165.625 23.9688C165.062 22.8438 164.781 21.5625 164.781 20.125V9.34375C164.781 7.34375 164.458 5.96875 163.812 5.21875C163.021 4.30208 161.396 3.84375 158.938 3.84375Z" fill="#B42124"/>
<path d="M152.681 38.715L152.941 38.135C154.127 38.1483 155.094 38.3283 155.841 38.675C156.601 39.0217 157.154 39.4883 157.501 40.075C157.861 40.6617 158.041 41.3217 158.041 42.055C158.041 42.855 157.847 43.5617 157.461 44.175C157.087 44.7883 156.534 45.275 155.801 45.635C155.067 45.9817 154.154 46.155 153.061 46.155H143.061V38.675V31.155H152.701C154.087 31.155 155.154 31.4817 155.901 32.135C156.661 32.775 157.041 33.6617 157.041 34.795C157.041 35.395 156.894 35.9817 156.601 36.555C156.321 37.115 155.861 37.595 155.221 37.995C154.594 38.3817 153.747 38.6217 152.681 38.715ZM145.721 45.415L144.701 44.035H152.761C153.587 44.035 154.227 43.8483 154.681 43.475C155.147 43.0883 155.381 42.5417 155.381 41.835C155.381 41.0883 155.107 40.5083 154.561 40.095C154.027 39.6817 153.234 39.475 152.181 39.475H145.681V37.435H151.921C152.627 37.435 153.214 37.2417 153.681 36.855C154.147 36.455 154.381 35.8883 154.381 35.155C154.381 34.6083 154.187 34.1617 153.801 33.815C153.414 33.455 152.854 33.275 152.121 33.275H144.701L145.721 31.895V38.4849V45.415Z" fill="#B42124"/>
<path d="M131.553 46.435C129.846 46.435 128.346 46.1083 127.053 45.455C125.759 44.8017 124.753 43.895 124.033 42.735C123.313 41.5617 122.953 40.2017 122.953 38.655C122.953 37.1083 123.313 35.755 124.033 34.595C124.753 33.4217 125.759 32.5083 127.053 31.855C128.346 31.2017 129.846 30.875 131.553 30.875C133.259 30.875 134.759 31.2017 136.053 31.855C137.346 32.5083 138.353 33.4217 139.073 34.595C139.793 35.755 140.153 37.1083 140.153 38.655C140.153 40.2017 139.793 41.5617 139.073 42.735C138.353 43.895 137.346 44.8017 136.053 45.455C134.759 46.1083 133.259 46.435 131.553 46.435ZM131.553 44.075C132.766 44.075 133.813 43.855 134.693 43.415C135.573 42.975 136.253 42.3483 136.733 41.535C137.226 40.7217 137.473 39.7617 137.473 38.655C137.473 37.5483 137.226 36.5883 136.733 35.775C136.253 34.9617 135.573 34.335 134.693 33.895C133.813 33.455 132.766 33.235 131.553 33.235C130.353 33.235 129.306 33.455 128.413 33.895C127.533 34.335 126.846 34.9617 126.353 35.775C125.873 36.5883 125.633 37.5483 125.633 38.655C125.633 39.7617 125.873 40.7217 126.353 41.535C126.846 42.3483 127.533 42.975 128.413 43.415C129.306 43.855 130.353 44.075 131.553 44.075Z" fill="#B42124"/>
<path d="M115.107 31.155C116.227 31.155 117.193 31.355 118.007 31.755C118.833 32.155 119.467 32.715 119.907 33.435C120.36 34.1417 120.587 34.9617 120.587 35.895C120.587 36.8283 120.36 37.655 119.907 38.375C119.467 39.0817 118.833 39.635 118.007 40.035C117.193 40.435 116.227 40.635 115.107 40.635H108.367V38.355H115.007C115.913 38.355 116.62 38.135 117.127 37.695C117.647 37.255 117.907 36.655 117.907 35.895C117.907 35.135 117.647 34.535 117.127 34.095C116.62 33.655 115.913 33.435 115.007 33.435H108.627L109.807 32.115V46.155H107.167V31.155H115.107Z" fill="#B42124"/>
<path d="M102.834 37.555V39.755H92.3542V37.555H102.834ZM93.0342 38.875V45.355L91.7742 43.875H103.414V46.155H90.3342V38.655V31.155H103.314V33.435H91.7742L93.0342 31.955V38.875Z" fill="#B42124"/>
<path d="M82.0206 38.715L82.2806 38.135C83.4673 38.1483 84.434 38.3283 85.1806 38.675C85.9406 39.0217 86.494 39.4883 86.8406 40.075C87.2006 40.6617 87.3806 41.3217 87.3806 42.055C87.3806 42.855 87.1873 43.5617 86.8006 44.175C86.4273 44.7883 85.874 45.275 85.1406 45.635C84.4073 45.9817 83.494 46.155 82.4006 46.155H72.4006V38.455V31.155H82.0406C83.4273 31.155 84.494 31.4817 85.2406 32.135C86.0006 32.775 86.3806 33.6617 86.3806 34.795C86.3806 35.395 86.234 35.9817 85.9406 36.555C85.6606 37.115 85.2006 37.595 84.5606 37.995C83.934 38.3817 83.0873 38.6217 82.0206 38.715ZM75.0606 45.415L74.0406 44.035H82.1006C82.9273 44.035 83.5673 43.8483 84.0206 43.475C84.4873 43.0883 84.7206 42.5417 84.7206 41.835C84.7206 41.0883 84.4473 40.5083 83.9006 40.095C83.3673 39.6817 82.574 39.475 81.5206 39.475H75.0206V37.435H81.2606C81.9673 37.435 82.554 37.2417 83.0206 36.855C83.4873 36.455 83.7206 35.8883 83.7206 35.155C83.7206 34.6083 83.5273 34.1617 83.1406 33.815C82.754 33.455 82.194 33.275 81.4606 33.275H74.0406L75.0606 31.895L75.0206 38.455L75.0606 45.415Z" fill="#B42124"/>
<path d="M64.2747 31.155C65.3947 31.155 66.3614 31.355 67.1747 31.755C68.0014 32.155 68.6347 32.715 69.0747 33.435C69.528 34.1417 69.7547 34.9617 69.7547 35.895C69.7547 36.8283 69.528 37.655 69.0747 38.375C68.6347 39.0817 68.0014 39.635 67.1747 40.035C66.3614 40.435 65.3947 40.635 64.2747 40.635H57.5347V38.355H64.1747C65.0814 38.355 65.788 38.135 66.2947 37.695C66.8147 37.255 67.0747 36.655 67.0747 35.895C67.0747 35.135 66.8147 34.535 66.2947 34.095C65.788 33.655 65.0814 33.435 64.1747 33.435H57.7947L58.9747 32.115V46.155H56.3347V31.155H64.2747Z" fill="#B42124"/>
<path d="M52.0022 37.555V39.755H41.5222V37.555H52.0022ZM42.2022 38.655V45.355L40.9422 43.875H52.5822V46.155H39.5022L39.5022 38.655L39.5022 31.155H52.4822V33.435H40.9422L42.2022 31.955V38.655Z" fill="#B42124"/>
<path d="M36.6 40.215C36.4667 41.4417 36.0333 42.5283 35.3 43.475C34.58 44.4083 33.6333 45.135 32.46 45.655C31.2867 46.175 29.9467 46.435 28.44 46.435C26.76 46.435 25.2867 46.1083 24.02 45.455C22.7533 44.8017 21.7667 43.895 21.06 42.735C20.3533 41.5617 20 40.2017 20 38.655C20 37.1083 20.3533 35.755 21.06 34.595C21.7667 33.4217 22.7533 32.5083 24.02 31.855C25.2867 31.2017 26.76 30.875 28.44 30.875C29.9467 30.875 31.2867 31.135 32.46 31.655C33.6333 32.175 34.58 32.9017 35.3 33.835C36.0333 34.7683 36.4667 35.855 36.6 37.095H33.94C33.7933 36.295 33.4733 35.6083 32.98 35.035C32.5 34.4617 31.8733 34.0217 31.1 33.715C30.3267 33.395 29.4333 33.235 28.42 33.235C27.2467 33.235 26.2267 33.455 25.36 33.895C24.5067 34.335 23.8467 34.9617 23.38 35.775C22.9133 36.5883 22.68 37.5483 22.68 38.655C22.68 39.7617 22.9133 40.7217 23.38 41.535C23.8467 42.3483 24.5067 42.975 25.36 43.415C26.2267 43.855 27.2467 44.075 28.42 44.075C29.4333 44.075 30.3267 43.9217 31.1 43.615C31.8733 43.3083 32.5 42.8683 32.98 42.295C33.4733 41.7083 33.7933 41.015 33.94 40.215H36.6Z" fill="#B42124"/>
</svg>
